<svg xmlns="http://www.w3.org/2000/svg" viewBox="0 0 32 32" width="32" height="32">
  <defs>
    <linearGradient id="grad1" x1="0%" y1="0%" x2="100%" y2="100%">
      <stop offset="0%" style="stop-color:#3B82F6;stop-opacity:1" />
      <stop offset="100%" style="stop-color:#1E40AF;stop-opacity:1" />
    </linearGradient>
    <linearGradient id="grad2" x1="0%" y1="0%" x2="100%" y2="100%">
      <stop offset="0%" style="stop-color:#10B981;stop-opacity:1" />
      <stop offset="100%" style="stop-color:#059669;stop-opacity:1" />
    </linearGradient>
  </defs>

  <!-- Background circle -->
  <circle cx="16" cy="16" r="15" fill="url(#grad1)" stroke="#1E40AF" stroke-width="1"/>

  <!-- Computer monitor base -->
  <rect x="8" y="18" width="16" height="2" rx="1" fill="#374151"/>

  <!-- Computer monitor screen -->
  <rect x="6" y="8" width="20" height="12" rx="2" fill="#1F2937" stroke="#6B7280" stroke-width="1"/>

  <!-- Screen content - circuit pattern -->
  <rect x="8" y="10" width="16" height="8" fill="#111827"/>

  <!-- Circuit lines -->
  <path d="M10 12 L14 12 M18 12 L22 12 M10 14 L12 14 M16 14 L22 14 M10 16 L14 16 M18 16 L20 16" stroke="url(#grad2)" stroke-width="1" fill="none"/>

  <!-- Circuit dots -->
  <circle cx="12" cy="12" r="0.5" fill="#10B981"/>
  <circle cx="20" cy="12" r="0.5" fill="#10B981"/>
  <circle cx="14" cy="14" r="0.5" fill="#10B981"/>
  <circle cx="18" cy="14" r="0.5" fill="#10B981"/>
  <circle cx="12" cy="16" r="0.5" fill="#10B981"/>
  <circle cx="20" cy="16" r="0.5" fill="#10B981"/>

  <!-- Power indicator -->
  <circle cx="24" cy="10" r="1" fill="#EF4444"/>
  <circle cx="24" cy="10" r="0.5" fill="#FEE2E2"/>
</svg>
